<?xml version="1.0" standalone="no"?>
<!DOCTYPE svg PUBLIC "-//W3C//DTD SVG 20010904//EN"
 "http://www.w3.org/TR/2001/REC-SVG-20010904/DTD/svg10.dtd">
<svg version="1.0" xmlns="http://www.w3.org/2000/svg"
 width="1344.000000pt" height="1344.000000pt" viewBox="0 0 1344.000000 1344.000000"
 preserveAspectRatio="xMidYMid meet">
<metadata>
Created by potrace 1.14, written by Peter Selinger 2001-2017
</metadata>
<g transform="translate(0.000000,1344.000000) scale(0.100000,-0.100000)"
fill="#000000" stroke="none">
<path d="M7090 10377 c0 -13 -3 -27 -7 -31 -4 -3 -8 -14 -9 -24 -1 -9 -5 -28
-9 -42 -4 -14 -10 -41 -15 -60 -4 -19 -22 -96 -40 -170 -18 -74 -41 -173 -52
-220 -23 -100 -23 -98 -42 -175 -23 -88 -57 -236 -62 -265 -3 -14 -9 -38 -14
-55 -9 -27 -81 -324 -94 -385 -3 -14 -10 -43 -16 -65 -5 -22 -13 -55 -16 -74
-3 -19 -10 -45 -15 -58 -5 -13 -6 -23 -3 -23 2 0 0 -8 -5 -17 -5 -10 -12 -34
-15 -53 -3 -19 -12 -59 -20 -88 -8 -29 -15 -55 -15 -57 -1 -3 -1 -6 -2 -7 0
-2 -2 -12 -4 -23 -2 -11 -22 -94 -44 -185 -61 -254 -118 -492 -126 -530 -1 -3
-4 -14 -8 -25 -3 -11 -8 -31 -11 -45 -2 -14 -12 -54 -21 -90 -20 -83 -17 -69
-60 -250 -39 -163 -75 -315 -80 -340 -2 -8 -4 -15 -5 -15 -1 0 -3 -9 -5 -20
-2 -11 -11 -49 -20 -85 -9 -36 -19 -75 -21 -88 -3 -13 -16 -69 -30 -125 -14
-56 -28 -113 -31 -127 -11 -51 -12 -55 -13 -55 -1 0 -3 -8 -5 -19 -2 -10 -9
-39 -15 -65 -6 -25 -12 -56 -15 -69 -2 -13 -7 -32 -10 -42 -3 -10 -8 -28 -10
-39 -3 -12 -7 -30 -10 -41 -3 -11 -7 -29 -10 -41 -2 -11 -7 -29 -10 -39 -3
-10 -8 -31 -10 -46 -3 -16 -34 -148 -70 -294 -36 -146 -68 -274 -70 -285 -2
-11 -7 -33 -10 -50 -4 -16 -9 -37 -12 -45 -3 -8 -7 -22 -8 -30 -5 -29 -23
-105 -25 -105 -1 0 -4 -11 -6 -25 -4 -21 -52 -221 -71 -295 -2 -11 -6 -29 -8
-40 -2 -11 -4 -20 -5 -20 -1 0 -3 -7 -5 -16 -5 -30 -61 -258 -70 -289 -1 -3
-7 -30 -13 -60 -7 -30 -14 -64 -17 -75 -4 -22 -81 -334 -91 -375 -4 -14 -8
-32 -10 -40 -1 -8 -5 -26 -9 -40 -3 -14 -8 -36 -11 -49 -3 -14 -16 -68 -30
-120 -14 -53 -27 -107 -29 -121 -2 -14 -7 -34 -9 -45 -19 -74 -41 -164 -63
-255 -13 -58 -37 -157 -53 -220 -16 -63 -31 -127 -34 -143 l-5 -27 501 2 501
3 13 50 c7 28 30 118 50 200 35 148 40 167 48 204 2 10 9 35 14 55 6 20 8 36
6 36 -3 0 0 8 5 18 5 9 11 31 14 47 5 25 49 210 74 305 3 14 8 33 9 42 4 18
120 498 131 538 10 40 11 43 17 77 3 18 10 43 15 56 5 13 12 41 15 61 4 21 8
42 11 46 2 3 7 21 10 39 3 18 17 76 31 129 14 54 27 106 29 117 2 11 18 79 35
150 35 145 39 159 46 194 3 14 7 28 10 33 3 5 7 21 9 36 3 21 53 231 92 382 3
14 7 31 9 39 1 7 8 36 15 65 7 28 14 53 14 56 0 3 7 28 14 56 7 29 14 58 15
65 1 8 8 32 14 54 6 22 14 55 17 74 3 19 8 37 10 41 2 3 6 17 8 31 3 13 25
107 50 209 25 102 48 196 51 210 3 14 12 54 21 90 9 36 18 72 20 80 2 8 12 51
24 95 11 44 22 91 25 105 3 14 17 72 31 130 15 58 29 113 31 123 2 10 6 27 9
37 3 10 7 27 9 37 6 28 105 443 116 483 8 30 16 66 20 92 1 4 8 31 16 60 8 29
17 64 20 78 3 14 7 33 10 42 3 9 7 26 9 37 6 27 8 34 40 166 15 61 28 115 29
120 1 6 5 16 9 23 5 6 6 12 4 12 -2 0 2 26 10 58 7 31 15 64 17 72 2 8 14 56
26 105 11 50 28 117 36 150 9 33 18 74 21 90 3 17 9 37 14 46 4 9 6 19 2 22
-3 4 0 13 7 22 7 8 10 15 7 15 -3 0 -1 16 5 36 5 20 11 44 13 53 2 9 15 66 30
126 15 61 28 117 30 125 2 8 8 35 15 60 7 25 14 52 15 60 2 8 18 74 35 145 18
72 33 137 35 145 2 8 11 44 20 80 9 36 18 76 21 90 3 14 10 43 16 65 6 22 12
49 14 60 1 11 3 20 4 20 2 0 6 17 14 55 3 14 12 49 19 78 l14 52 -513 0 -514
0 0 -23z"/>
<path d="M4850 9372 c-8 -2 -33 -13 -55 -22 -22 -10 -89 -39 -150 -65 -60 -26
-128 -55 -150 -65 -36 -16 -114 -50 -235 -102 -25 -10 -54 -23 -65 -28 -11 -5
-42 -19 -70 -31 -27 -11 -78 -34 -113 -50 -35 -16 -69 -29 -76 -29 -6 0 -16
-4 -21 -9 -6 -5 -32 -18 -60 -29 -27 -11 -75 -31 -105 -45 -30 -14 -104 -46
-165 -72 -60 -26 -138 -60 -173 -76 -35 -16 -66 -29 -68 -29 -3 0 -29 -11 -57
-23 -29 -13 -200 -88 -382 -166 -181 -79 -348 -152 -370 -164 -22 -12 -41 -20
-42 -19 -3 2 -58 -21 -142 -59 -35 -16 -70 -29 -77 -29 -7 0 -14 -3 -16 -7 -3
-7 -99 -51 -123 -57 -5 -1 -30 -12 -55 -23 -117 -54 -256 -113 -267 -113 -7 0
-13 -4 -13 -10 0 -5 -6 -10 -13 -10 -10 0 -324 -133 -472 -200 -57 -25 -142
-63 -198 -86 -34 -15 -80 -34 -102 -44 -22 -10 -110 -48 -195 -85 -85 -37
-179 -78 -208 -91 -29 -13 -55 -24 -58 -24 -3 0 -29 -11 -57 -24 -58 -26 -401
-175 -459 -199 l-38 -16 0 -589 0 -588 142 -63 c79 -34 148 -63 153 -65 6 -2
33 -13 60 -25 83 -38 100 -44 108 -43 4 1 7 -2 7 -7 0 -5 11 -12 25 -15 14 -4
49 -17 78 -30 47 -22 411 -180 482 -211 38 -16 164 -71 235 -102 30 -14 64
-28 75 -33 11 -4 43 -18 70 -30 28 -13 131 -58 230 -100 192 -83 317 -138 403
-176 29 -13 56 -24 60 -24 4 0 21 -7 37 -16 17 -9 56 -27 88 -40 87 -37 190
-83 209 -94 10 -6 22 -10 27 -10 5 0 42 -15 83 -33 106 -49 132 -60 138 -62 9
-3 441 -191 585 -255 22 -10 74 -32 115 -50 41 -18 94 -41 117 -51 41 -18 92
-40 103 -44 16 -5 55 -23 138 -61 51 -24 95 -43 97 -44 3 0 20 -7 37 -15 18
-8 87 -37 153 -66 66 -28 138 -59 160 -69 22 -10 74 -32 115 -50 71 -31 93
-40 200 -88 155 -68 329 -142 336 -142 7 0 11 1289 5 1356 -1 7 -27 22 -58 34
-32 12 -71 28 -88 35 -16 7 -73 29 -125 49 -52 21 -117 47 -145 58 -27 11 -59
24 -70 28 -11 5 -36 15 -57 24 -20 9 -38 16 -41 16 -2 0 -22 8 -43 17 -22 9
-44 17 -49 19 -6 1 -32 11 -57 23 -26 11 -51 21 -55 21 -4 1 -26 9 -48 20 -22
11 -44 19 -48 20 -5 0 -23 6 -40 14 -38 17 -68 28 -82 31 -5 2 -30 12 -55 23
-25 11 -88 36 -140 57 -52 20 -108 42 -125 50 -16 7 -84 34 -150 60 -66 26
-131 52 -145 58 -14 6 -27 11 -30 11 -11 3 -1028 409 -1067 427 -24 10 -47 19
-53 19 -5 0 -33 11 -62 24 -29 13 -84 36 -123 51 -38 14 -88 34 -110 43 -21 9
-42 17 -45 18 -12 2 -100 39 -134 56 -10 5 -27 11 -38 13 -10 2 -33 11 -50 20
-17 8 -37 15 -45 15 -8 0 -11 5 -8 10 3 6 14 10 23 10 9 0 29 6 44 14 14 8 43
19 65 26 21 7 52 18 68 25 17 8 62 25 100 40 39 15 79 30 90 34 11 5 70 27
130 51 61 23 124 47 140 53 17 7 32 12 35 12 3 1 22 9 44 18 21 9 40 17 42 17
2 0 43 15 92 34 48 19 148 57 222 85 74 29 144 56 155 61 11 5 88 34 170 65
83 31 159 60 170 64 11 5 58 24 105 42 47 18 91 37 98 42 6 5 12 7 12 3 0 -3
17 1 38 10 45 19 373 145 387 148 6 2 27 10 47 20 21 9 40 16 44 16 6 0 192
72 299 115 11 4 25 9 30 10 6 2 44 16 85 33 41 17 161 63 265 103 105 40 224
85 265 102 41 16 85 31 98 34 12 3 22 10 23 17 4 44 3 1368 -1 1371 -3 1 -12
0 -20 -3z"/>
<path d="M8557 9360 c-3 -11 -2 -20 2 -20 4 0 5 -20 1 -44 -3 -24 -3 -53 1
-64 5 -12 4 -24 -1 -27 -5 -3 -6 -16 -1 -28 4 -12 4 -35 1 -52 -3 -16 -3 -40
1 -52 5 -13 4 -25 -2 -28 -5 -4 -7 -11 -4 -16 8 -12 12 -99 5 -99 -7 0 -4
-116 3 -135 4 -8 2 -17 -3 -20 -5 -3 -6 -15 0 -29 4 -12 4 -29 0 -36 -5 -8 -6
-19 -3 -24 4 -5 6 -28 5 -50 -1 -23 -3 -59 -4 -82 -1 -22 2 -46 6 -52 3 -6 2
-13 -4 -17 -6 -4 -7 -11 -4 -17 4 -6 6 -33 5 -62 -1 -28 -1 -62 0 -76 0 -14 0
-29 0 -35 -4 -65 -3 -104 3 -113 3 -6 2 -13 -3 -17 -6 -3 -7 -15 -3 -28 8 -23
7 -79 -1 -102 -4 -9 23 -24 86 -48 51 -20 115 -45 142 -56 28 -11 86 -34 130
-51 44 -17 94 -38 112 -46 17 -8 36 -14 42 -14 6 0 30 -8 54 -19 23 -10 56
-24 72 -31 17 -8 33 -14 38 -16 4 -1 8 -2 10 -4 1 -1 9 -3 17 -5 8 -2 33 -11
55 -21 22 -10 45 -19 50 -19 6 0 15 -3 20 -7 6 -3 82 -34 170 -67 88 -34 169
-66 180 -71 26 -12 138 -54 147 -55 3 0 10 -3 14 -7 4 -5 16 -8 26 -8 10 0 18
-5 18 -10 0 -6 3 -9 8 -8 4 0 16 -2 27 -7 11 -4 65 -25 120 -46 126 -48 514
-200 620 -242 44 -17 82 -32 85 -33 6 -1 60 -22 165 -64 11 -5 103 -41 205
-80 102 -39 194 -75 205 -80 18 -7 51 -20 65 -25 3 -1 18 -7 33 -13 16 -7 30
-12 33 -12 3 0 21 -7 42 -16 20 -10 42 -18 47 -19 6 -2 35 -13 65 -25 30 -12
66 -27 80 -32 14 -6 33 -15 44 -20 10 -5 27 -11 37 -13 10 -2 33 -10 51 -19
18 -8 43 -17 56 -21 12 -3 22 -9 22 -13 0 -4 -40 -22 -88 -40 -48 -19 -96 -37
-107 -42 -22 -9 -57 -22 -65 -25 -3 -1 -22 -9 -44 -18 -21 -9 -41 -17 -43 -17
-3 0 -19 -6 -36 -14 -18 -8 -97 -40 -177 -71 -80 -31 -158 -62 -175 -69 -41
-18 -199 -80 -205 -82 -7 -1 -41 -14 -65 -24 -62 -27 -150 -60 -161 -60 -7 0
-14 -4 -16 -10 -1 -5 -12 -11 -23 -13 -11 -2 -31 -9 -45 -14 -14 -6 -68 -28
-120 -48 -52 -20 -108 -43 -125 -50 -16 -8 -49 -19 -72 -27 -24 -7 -43 -16
-43 -19 0 -4 -12 -10 -27 -13 -27 -7 -384 -146 -442 -173 -18 -8 -39 -16 -45
-18 -14 -3 -41 -13 -91 -35 -44 -19 -237 -95 -245 -96 -3 0 -23 -8 -45 -18
-22 -10 -67 -28 -100 -41 -33 -12 -73 -29 -90 -36 -16 -7 -32 -13 -35 -13 -19
-4 -257 -101 -264 -108 -6 -4 -17 -8 -25 -8 -9 0 -27 -6 -41 -13 -14 -7 -54
-24 -90 -37 -36 -13 -76 -30 -90 -37 -14 -7 -30 -13 -36 -13 -7 0 -37 -11 -67
-26 -52 -23 -55 -27 -47 -49 6 -15 6 -27 -1 -30 -5 -4 -6 -11 -3 -17 6 -10 7
-69 1 -140 -1 -18 1 -43 5 -55 4 -12 3 -25 -2 -28 -5 -3 -6 -16 -1 -28 4 -12
4 -35 1 -52 -3 -16 -3 -40 1 -52 5 -12 4 -25 -1 -28 -5 -3 -6 -15 -1 -27 4
-12 5 -38 1 -59 -4 -21 -4 -43 1 -50 4 -7 4 -20 -1 -30 -5 -9 -6 -19 -3 -23 6
-5 6 -24 1 -142 -1 -22 2 -46 6 -52 3 -6 2 -13 -4 -17 -6 -4 -7 -11 -4 -17 4
-6 6 -32 5 -59 0 -27 -1 -69 -1 -94 0 -25 0 -52 0 -60 0 -31 0 -45 1 -57 0 -7
0 -29 0 -48 -1 -19 -1 -43 -1 -52 0 -10 0 -26 0 -35 0 -66 2 -83 10 -83 5 0
35 12 67 26 32 15 74 33 93 41 19 8 47 21 62 29 15 8 30 15 33 15 2 0 26 9 52
21 27 12 50 22 53 23 6 2 44 18 95 41 22 10 42 18 45 19 16 5 89 38 112 50 14
8 33 15 42 15 9 0 16 5 16 10 0 6 6 10 14 10 7 0 44 14 82 31 38 16 83 36 99
44 17 7 51 22 77 34 52 23 100 44 108 46 3 0 28 11 55 24 28 12 68 30 90 39
22 8 51 23 65 31 13 9 24 15 25 13 0 -5 41 11 128 52 43 20 80 36 82 36 3 0
28 11 57 24 29 13 154 67 278 121 124 54 248 107 275 120 28 12 79 35 115 50
36 15 93 40 128 56 35 16 65 29 67 29 3 0 34 13 69 30 36 16 92 41 125 55 33
14 84 36 113 49 29 13 193 84 363 159 171 74 330 144 355 155 41 18 76 33 90
37 3 1 31 13 62 28 49 24 102 47 118 52 9 3 54 23 105 46 28 12 52 23 55 24
10 3 57 23 105 45 69 31 98 44 195 85 86 37 95 41 213 94 38 17 70 31 72 31 3
0 35 14 72 31 38 17 88 39 113 49 25 10 86 37 135 59 l90 40 3 585 2 584 -42
20 c-24 11 -88 39 -143 62 -55 23 -125 54 -155 68 -30 14 -59 27 -65 28 -10 2
-61 24 -173 75 -35 16 -69 29 -75 29 -7 0 -17 4 -22 9 -6 5 -39 21 -75 36 -36
15 -83 35 -105 45 -22 10 -68 30 -102 44 -35 14 -87 37 -115 50 -130 59 -167
74 -172 68 -3 -3 -6 0 -6 6 0 7 -5 12 -11 12 -5 0 -35 11 -65 25 -30 14 -57
25 -59 25 -2 0 -30 12 -62 27 -32 14 -60 27 -63 28 -7 2 -45 19 -105 45 -72
32 -99 43 -105 45 -3 0 -21 8 -40 17 -19 9 -152 67 -295 129 -250 107 -294
127 -387 168 -24 10 -72 31 -108 46 -36 15 -94 40 -130 57 -36 17 -69 31 -75
33 -5 1 -32 12 -58 23 -27 12 -50 22 -52 22 -2 0 -35 14 -72 31 -37 17 -77 35
-88 40 -11 4 -71 31 -134 59 -63 27 -121 50 -128 50 -7 0 -13 5 -13 10 0 6 -6
10 -13 10 -10 0 -299 122 -424 180 -24 11 -45 20 -48 20 -2 0 -28 11 -57 24
-29 13 -87 38 -128 56 -41 18 -99 43 -128 56 -29 13 -55 24 -57 24 -3 0 -33
13 -67 28 -120 55 -227 102 -232 102 -2 0 -33 13 -68 29 -85 39 -346 151 -352
151 -2 0 -6 -9 -9 -20z"/>
</g>
</svg>
