<svg xmlns="http://www.w3.org/2000/svg" viewBox="0 0 14.4 10.4"><defs><style>.cls-1{fill:#4d4d4d;}</style></defs><title>Asset 6</title><g id="Layer_2" data-name="Layer 2"><g id="Layer_1-2" data-name="Layer 1"><path class="cls-1" d="M12.8,0H1.6A1.6,1.6,0,0,0,0,1.6V8.8a1.6,1.6,0,0,0,1.6,1.6H12.8a1.6,1.6,0,0,0,1.6-1.6V1.6A1.6,1.6,0,0,0,12.8,0M5.05,5.85,6.34,7a1.3,1.3,0,0,0,.86.32A1.34,1.34,0,0,0,8.07,7L9.35,5.85l0,0L12.23,8.8H2.16L5.08,5.88ZM1.6,8.23V2.83L4.48,5.35ZM9.92,5.35,12.8,2.83v5.4ZM12.8,1.6v.17L7.54,6.37a.54.54,0,0,1-.68,0L1.6,1.77V1.6Z"/></g></g></svg>