<svg xmlns="http://www.w3.org/2000/svg" viewBox="0 0 18.98 21.4"><defs><style>.cls-1{fill:#fff;}</style></defs><title>Asset 12</title><g id="Layer_2" data-name="Layer 2"><g id="Layer_1-2" data-name="Layer 1"><path class="cls-1" d="M9.49,21.4a1.65,1.65,0,0,1-.82-.22L6,19.63c-.39-.22-.2-.3-.07-.34a5.14,5.14,0,0,0,1.18-.54.2.2,0,0,1,.2,0l2,1.19a.25.25,0,0,0,.24,0l7.85-4.53a.25.25,0,0,0,.12-.21V6.17A.26.26,0,0,0,17.45,6L9.61,1.43a.24.24,0,0,0-.24,0L1.53,6a.25.25,0,0,0-.12.21v9.05a.24.24,0,0,0,.12.21l2.15,1.24c1.17.58,1.88-.1,1.88-.79V6.94a.22.22,0,0,1,.23-.23h1A.23.23,0,0,1,7,6.94v8.94a2.18,2.18,0,0,1-2.32,2.45,3.35,3.35,0,0,1-1.81-.49L.82,16.66A1.66,1.66,0,0,1,0,15.22V6.17A1.65,1.65,0,0,1,.82,4.74L8.67.21a1.72,1.72,0,0,1,1.65,0l7.84,4.53A1.65,1.65,0,0,1,19,6.17v9.05a1.66,1.66,0,0,1-.82,1.43l-7.84,4.53a1.65,1.65,0,0,1-.82.22"/><path class="cls-1" d="M11.8,13.95c-2.56,0-3.1-1.18-3.1-2.16a.17.17,0,0,1,.17-.17h.76a.17.17,0,0,1,.17.14c.11.77.46,1.16,2,1.16,1.23,0,1.76-.28,1.76-.93,0-.38-.15-.66-2.07-.85C9.89,11,8.9,10.63,8.9,9.34s1-1.89,2.67-1.89c1.88,0,2.81.65,2.92,2a.17.17,0,0,1,0,.13.17.17,0,0,1-.12.05h-.76a.17.17,0,0,1-.16-.13c-.18-.81-.63-1.07-1.83-1.07s-1.5.47-1.5.82.18.55,2,.79,2.66.58,2.66,1.84-1.06,2-2.92,2"/></g></g></svg>