<svg xmlns="http://www.w3.org/2000/svg" viewBox="0 0 13.64 13.63"><defs><style>.cls-1{fill:#4d4d4d;}</style></defs><title>Asset 5</title><g id="Layer_2" data-name="Layer 2"><g id="Layer_1-2" data-name="Layer 1"><path class="cls-1" d="M8.7,3.66l3-3L11.32.34a1.23,1.23,0,0,0-1.7,0L8.35,1.61a1.2,1.2,0,0,0,0,1.7Z"/><path class="cls-1" d="M3.32,8.34a1.23,1.23,0,0,0-1.69,0L.35,9.61a1.19,1.19,0,0,0-.35.85,1.2,1.2,0,0,0,.35.85l.35.34,3-3Z"/><path class="cls-1" d="M12.75,1.77l-.29-.29-3,3L10,5a.39.39,0,0,1,.12.28.41.41,0,0,1-.12.28L5.55,10A.41.41,0,0,1,5,10l-.52-.52-3,3,.29.28a3.42,3.42,0,0,0,2.44.88c1.29,0,3.41-.57,6.12-3.29,5.42-5.42,2.53-8.44,2.4-8.56"/></g></g></svg>