<svg xmlns="http://www.w3.org/2000/svg" viewBox="0 0 20.43 18.37"><defs><style>.cls-1{fill:#6d6e71;}.cls-2{fill:#fff;}</style></defs><title>Asset 9</title><g id="Layer_2" data-name="Layer 2"><g id="Layer_1-2" data-name="Layer 1"><path class="cls-1" d="M0,9.15c0,1.54,1.51,3,3.88,3.8C3.41,15.33,3.8,17.26,5.1,18s3.33.24,5.22-1.41c1.84,1.59,3.7,2.21,5,1.46s1.74-2.83,1.25-5.29c2.47-.82,3.86-2,3.86-3.61s-1.51-2.81-3.85-3.62C17.1,3,16.66,1.09,15.3.31s-3.19-.1-5.06,1.53C8.3.11,6.44-.41,5.08.37S3.41,3.08,3.88,5.52C1.59,6.32,0,7.65,0,9.15Z"/><path class="cls-2" d="M16.08,6.33l-.58-.18q0-.2.09-.4c.44-2.15.15-3.88-.83-4.44s-2.49,0-4.06,1.38l-.45.41-.3-.28C8.3,1.37,6.66.76,5.68,1.33S4.45,3.5,4.85,5.54q.06.3.13.6l-.67.21C2.39,7,1.16,8.07,1.16,9.16s1.32,2.25,3.32,2.94l.49.15q-.08.32-.14.65c-.38,2-.08,3.59.86,4.13s2.61,0,4.2-1.41l.38-.35.49.45c1.54,1.33,3.06,1.86,4,1.32s1.29-2.27.88-4.34q0-.24-.11-.48l.34-.11c2.08-.69,3.43-1.8,3.43-2.94S18,7,16.08,6.33Z"/><path class="cls-1" d="M15.63,11.37l-.3.1a18.19,18.19,0,0,0-.92-2.3,18.18,18.18,0,0,0,.88-2.26l.54.17c1.68.58,2.7,1.43,2.7,2.09s-1.11,1.61-2.9,2.21Zm-.75,1.48A6.56,6.56,0,0,1,15,15.24a1.6,1.6,0,0,1-.59,1.13c-.57.33-1.79-.1-3.11-1.23l-.46-.42a18.21,18.21,0,0,0,1.52-1.93,18.09,18.09,0,0,0,2.46-.38q.06.22.1.44ZM7.35,16.31a1.6,1.6,0,0,1-1.27,0C5.5,16,5.27,14.75,5.59,13q.06-.3.13-.6a18.23,18.23,0,0,0,2.44.35,18.86,18.86,0,0,0,1.56,1.92L9.38,15a6.56,6.56,0,0,1-2,1.27ZM4.73,11.36a6.57,6.57,0,0,1-2.12-1.12,1.6,1.6,0,0,1-.68-1.08c0-.66,1-1.5,2.63-2.08l.62-.2a18.59,18.59,0,0,0,.88,2.29,18.87,18.87,0,0,0-.9,2.32Zm.88-6C5.27,3.65,5.49,2.33,6.06,2S8,2.15,9.43,3.41l.27.25A18.57,18.57,0,0,0,8.15,5.57a18.94,18.94,0,0,0-2.42.38q-.07-.28-.12-.56Zm7.83,1.93q-.27-.46-.55-.91c.58.07,1.13.17,1.65.29A16.53,16.53,0,0,1,14,8.27q-.25-.48-.52-.94ZM10.24,4.21A16.58,16.58,0,0,1,11.31,5.5q-1.07-.05-2.14,0c.35-.46.71-.9,1.08-1.29ZM7,7.33q-.27.46-.51.94C6.29,7.73,6.1,7.2,5.94,6.7c.52-.12,1.07-.21,1.64-.28Q7.3,6.86,7,7.33ZM7.6,12a16.5,16.5,0,0,1-1.67-.27c.16-.52.36-1.05.59-1.6q.25.48.51.94T7.6,12Zm2.66,2.2c-.37-.4-.73-.83-1.09-1.31l1.06,0,1.1,0A16.48,16.48,0,0,1,10.27,14.16Zm3.7-4.1a16.46,16.46,0,0,1,.61,1.6,16.45,16.45,0,0,1-1.69.29q.29-.46.56-.92t.53-1Zm-1.2.57q-.41.72-.87,1.4c-.54,0-1.09.06-1.66.06s-1.11,0-1.64-.05q-.47-.69-.89-1.41T6.93,9.18q.36-.75.77-1.46h0q.41-.72.88-1.4c.54,0,1.09-.06,1.65-.06s1.12,0,1.66.06q.46.68.87,1.4t.78,1.46q-.36.75-.78,1.47ZM14.37,2c.61.35.84,1.76.46,3.62q0,.18-.08.36a18.57,18.57,0,0,0-2.43-.38,18.21,18.21,0,0,0-1.53-1.91l.42-.38C12.54,2.11,13.8,1.65,14.37,2Z"/><path class="cls-2" d="M10.24,7.54A1.62,1.62,0,1,1,8.61,9.16a1.62,1.62,0,0,1,1.62-1.62"/></g></g></svg>